<svg xmlns="http://www.w3.org/2000/svg" viewBox="0 0 241.82 14.73"><g id="Layer_2" data-name="Layer 2"><g id="Layer_1-2" data-name="Layer 1"><path d="M1.69,17.3V3.05H5V17.3Zm3.05-5.84V8.67h7v2.79Zm6.72,5.84V3.05h3.29V17.3Z" transform="translate(-1.69 -2.81)"/><path d="M16,17.3,22.28,3.05h3.25L31.92,17.3H28.46L23.23,4.72h1.33L19.33,17.3Zm3.19-3.05L20,11.74h7.36l.86,2.51Z" transform="translate(-1.69 -2.81)"/><path d="M35.3,17.3V11.48l.75,2L29.76,3.05h3.53l4.8,8h-2l4.83-8h3.21L37.86,13.47l.76-2V17.3Z" transform="translate(-1.69 -2.81)"/><path d="M42,17.3,48.34,3.05H51.6L58,17.3H54.53L49.3,4.72h1.32L45.39,17.3Zm3.2-3.05L46,11.74h7.37l.86,2.51Z" transform="translate(-1.69 -2.81)"/><path d="M60.76,17.3V5.74H56.2V3.05H68.62V5.74H64.06V17.3Z" transform="translate(-1.69 -2.81)"/><path d="M70.12,17.3V3.05h3.32V17.3Z" transform="translate(-1.69 -2.81)"/><path d="M82.56,17.3V3.05h3.28V17.3ZM85.49,14l-.16-3.8,6.82-7.19h3.66L89.68,9.67l-1.87,1.95Zm6.82,3.26-5.07-6.19L89.4,8.75l6.78,8.55Z" transform="translate(-1.69 -2.81)"/><path d="M96.67,17.3,103,3.05h3.26l6.39,14.25h-3.46L104,4.72h1.32L100.05,17.3Zm3.2-3.05.83-2.51h7.37l.85,2.51Z" transform="translate(-1.69 -2.81)"/><path d="M113.82,17.3V3.05h6.08a7,7,0,0,1,4.62,1.38,4.63,4.63,0,0,1,1.65,3.77,5,5,0,0,1-.75,2.76,4.66,4.66,0,0,1-2.14,1.75,8.23,8.23,0,0,1-3.29.6h-4.36l1.51-1.42V17.3Zm3.32-5.05-1.51-1.57h4.17a3.41,3.41,0,0,0,2.28-.65,2.24,2.24,0,0,0,.78-1.83,2.23,2.23,0,0,0-.78-1.82,3.46,3.46,0,0,0-2.28-.64h-4.17l1.51-1.57Zm5.76,5.05-3.59-5.17h3.55l3.58,5.17Z" transform="translate(-1.69 -2.81)"/><path d="M131.78,17.3V11.48l.75,2L126.24,3.05h3.52l4.81,8h-2l4.83-8h3.21l-6.25,10.42.76-2V17.3Z" transform="translate(-1.69 -2.81)"/><path d="M138.49,17.3l6.33-14.25h3.26l6.39,14.25H151L145.78,4.72h1.32L141.87,17.3Zm3.2-3.05.83-2.51h7.37l.85,2.51Z" transform="translate(-1.69 -2.81)"/><path d="M161.71,17.3V3.05H165V14.61h7.1V17.3Z" transform="translate(-1.69 -2.81)"/><path d="M173.71,17.3V3.05h10.77V5.7H177v9h7.75V17.3Zm3-5.94V8.77h6.86v2.59Z" transform="translate(-1.69 -2.81)"/><path d="M191.31,17.54a11.62,11.62,0,0,1-3.29-.46,7.54,7.54,0,0,1-2.53-1.19l1.12-2.48a7.78,7.78,0,0,0,2.16,1.07,8,8,0,0,0,2.54.42,4.91,4.91,0,0,0,1.58-.21,1.84,1.84,0,0,0,.88-.54,1.16,1.16,0,0,0,.29-.78,1.09,1.09,0,0,0-.45-.91,3.66,3.66,0,0,0-1.19-.54c-.49-.15-1-.28-1.62-.41s-1.17-.29-1.76-.47a7.29,7.29,0,0,1-1.63-.73,3.66,3.66,0,0,1-1.18-1.2,3.66,3.66,0,0,1-.43-1.86A4,4,0,0,1,186.45,5a4.36,4.36,0,0,1,2-1.61,8.2,8.2,0,0,1,3.35-.6,11.39,11.39,0,0,1,2.66.32,8,8,0,0,1,2.29.94l-1,2.48a8.46,8.46,0,0,0-2-.82,7.65,7.65,0,0,0-2-.28,4.81,4.81,0,0,0-1.57.22,1.75,1.75,0,0,0-.86.58,1.27,1.27,0,0,0-.28.81,1.11,1.11,0,0,0,.45.92,3.32,3.32,0,0,0,1.18.54c.49.13,1,.26,1.63.38a17.77,17.77,0,0,1,1.77.48,8.12,8.12,0,0,1,1.61.72,3.56,3.56,0,0,1,1.19,1.19,3.46,3.46,0,0,1,.46,1.84,3.8,3.8,0,0,1-.67,2.19,4.49,4.49,0,0,1-2,1.61A8.07,8.07,0,0,1,191.31,17.54Z" transform="translate(-1.69 -2.81)"/><path d="M202.46,17.3V5.74H197.9V3.05h12.41V5.74h-4.55V17.3Z" transform="translate(-1.69 -2.81)"/><path d="M208.55,17.3l6.33-14.25h3.25l6.39,14.25h-3.46L215.83,4.72h1.33L211.93,17.3Zm3.19-3.05.84-2.51h7.36l.86,2.51Z" transform="translate(-1.69 -2.81)"/><path d="M225.7,17.3V3.05h6.08a7,7,0,0,1,4.62,1.38,4.63,4.63,0,0,1,1.65,3.77A5,5,0,0,1,237.3,11a4.77,4.77,0,0,1-2.14,1.75,8.24,8.24,0,0,1-3.3.6h-4.35l1.5-1.42V17.3ZM229,12.25l-1.5-1.57h4.17A3.44,3.44,0,0,0,234,10a2.26,2.26,0,0,0,.77-1.83A2.26,2.26,0,0,0,234,6.38a3.5,3.5,0,0,0-2.28-.64h-4.17L229,4.17Zm5.76,5.05-3.58-5.17h3.54l3.58,5.17Z" transform="translate(-1.69 -2.81)"/><path d="M240.19,17.3V3.05h3.32V17.3Z" transform="translate(-1.69 -2.81)"/></g></g></svg>