<svg xmlns="http://www.w3.org/2000/svg" viewBox="0 0 250 41.55"><g id="Layer_2" data-name="Layer 2"><g id="Layer_1-2" data-name="Layer 1"><path d="M16.88,38.32v2.17A155.82,155.82,0,0,0,0,40.49V38.38l2.29-.19c.4,0,.79-.08,1.18-.15.87-.17,1.1-.38,1.2-1.26a29,29,0,0,0,.27-3.21c.06-7.11.11-14.22.11-21.34,0-2.28-.17-4.56-.27-6.84a4,4,0,0,0-.07-.5c-.22-1-.47-1.32-1.52-1.49C2.4,3.27,1.61,3.22.82,3.13L0,3.06V1c.14,0,.27,0,.4,0,5.38.26,10.76.15,16.14-.07a40.17,40.17,0,0,1,8,.22,8.15,8.15,0,0,1,5.09,2.51,8.33,8.33,0,0,1,2,5.85,10,10,0,0,1-4.92,8.44,16.65,16.65,0,0,1-4.29,2L22,20a1.5,1.5,0,0,0,.11.22Q27.49,28,32.88,35.76a14.91,14.91,0,0,0,1,1.24,3.7,3.7,0,0,0,2.8,1.28h.71v2.09h-.33l-8.92,0a.72.72,0,0,1-.71-.36c-2.92-4.36-5.84-8.74-8.8-13.08-1.48-2.18-3-4.3-4.57-6.45a1.09,1.09,0,0,1,.05-1.17c.09-.09.28-.08.42-.07a10.59,10.59,0,0,0,5.22-.78,7.5,7.5,0,0,0,4.41-5.93,9.07,9.07,0,0,0-.39-4.76,6.19,6.19,0,0,0-4.88-3.94,15.31,15.31,0,0,0-6.66.21c0,.86-.1,1.73-.1,2.6C12.1,13,12,19.25,12,25.54c0,3,.05,6,.12,9a14.08,14.08,0,0,0,.26,2.33,1.31,1.31,0,0,0,1.34,1.27c.81.09,1.62.12,2.43.18Z"/><path d="M59.31,0a24.64,24.64,0,0,1,9.52,1.73,16.23,16.23,0,0,1,10,11.81A24.39,24.39,0,0,1,77,30.79a18.84,18.84,0,0,1-12.52,9.89,24.55,24.55,0,0,1-14.18-.38,16.56,16.56,0,0,1-11-10.88,25.55,25.55,0,0,1-.37-16A17.72,17.72,0,0,1,50.64,1.38,26.06,26.06,0,0,1,59.31,0ZM71.88,21.12c0-.95-.06-1.9-.13-2.85a23.53,23.53,0,0,0-1.84-7.92,11.94,11.94,0,0,0-6.34-6.53A14,14,0,0,0,55.81,3a10.79,10.79,0,0,0-6.4,3.33,14.18,14.18,0,0,0-3.23,6.42,29.11,29.11,0,0,0-.63,8.63,24.93,24.93,0,0,0,2.27,9.64,13.49,13.49,0,0,0,4,5.21,11.6,11.6,0,0,0,7.33,2.22A12.06,12.06,0,0,0,65.26,37a11.9,11.9,0,0,0,5.1-6.36A27,27,0,0,0,71.88,21.12Z"/><path d="M123.1,21.48a23.66,23.66,0,0,1,1.72-10,17.69,17.69,0,0,1,10-9.76A26.26,26.26,0,0,1,146.26.06a23,23,0,0,1,7.81,1.69,16.25,16.25,0,0,1,10,11.8,24.38,24.38,0,0,1-1.89,17.21,18.78,18.78,0,0,1-12.55,9.92,24.21,24.21,0,0,1-15.16-.75,16.74,16.74,0,0,1-10.07-10.77A25.84,25.84,0,0,1,123.1,21.48Zm7.6-2.16c0,.25,0,.49,0,.74a26.71,26.71,0,0,0,2,10.22,15.3,15.3,0,0,0,3.79,5.57c3.64,3.25,9.8,3.24,13.4,1.43a11.8,11.8,0,0,0,5.7-6.69A23.84,23.84,0,0,0,157,23.27a32.29,32.29,0,0,0-.87-10,15.37,15.37,0,0,0-3.58-6.8,11.79,11.79,0,0,0-8.85-3.59C138,2.78,134,5.47,132,10.65A23.87,23.87,0,0,0,130.7,19.32Z"/><path d="M230.32,0a23.52,23.52,0,0,1,9.85,2.14,16.19,16.19,0,0,1,9.07,11.38,24.48,24.48,0,0,1-2,17.38,18.85,18.85,0,0,1-12.41,9.76,24.49,24.49,0,0,1-14.26-.38,16.58,16.58,0,0,1-10.94-10.91,25.6,25.6,0,0,1-.35-15.91A17.74,17.74,0,0,1,221,1.38,26.54,26.54,0,0,1,230.32,0ZM215.89,19.36v.69a26.76,26.76,0,0,0,2,10.23,15.38,15.38,0,0,0,3.79,5.57c3.65,3.25,9.8,3.24,13.4,1.43a11.77,11.77,0,0,0,5.7-6.69,23.75,23.75,0,0,0,1.44-7.36,32.28,32.28,0,0,0-.88-10,15.28,15.28,0,0,0-3.57-6.81,11.82,11.82,0,0,0-8.9-3.59c-5.65,0-9.66,2.64-11.61,7.81A23.67,23.67,0,0,0,215.89,19.36Z"/><path d="M120.38,35.34c-.35.95-.66,1.84-1,2.72a.91.91,0,0,1-.41.39,26,26,0,0,1-12.73,3A25.17,25.17,0,0,1,95.1,39.05,18.71,18.71,0,0,1,84.66,25.41a22.24,22.24,0,0,1,.91-12.71,18.12,18.12,0,0,1,9.25-10A25.81,25.81,0,0,1,104.73.17,36.48,36.48,0,0,1,120.1,2.55l.25.1a.59.59,0,0,1,.13.09c-1.13,2.88-1.13,6-1.35,9H117L117,10.14c0-.81-.08-1.62-.11-2.43A2.19,2.19,0,0,0,116,6a11.59,11.59,0,0,0-5.17-2.46,17.15,17.15,0,0,0-9.78.46,12.62,12.62,0,0,0-7.83,7.9,21.14,21.14,0,0,0,1.16,17.83,14.72,14.72,0,0,0,12.21,8A20.4,20.4,0,0,0,119.49,35C120,34.71,120.09,35.25,120.38,35.34Z"/><path d="M205.58,35.35c-.35.94-.68,1.86-1.05,2.77-.05.14-.24.25-.4.33a25.91,25.91,0,0,1-12.73,3A25.19,25.19,0,0,1,180.24,39a18.76,18.76,0,0,1-10.4-13.68,22.37,22.37,0,0,1,.93-12.67,18.17,18.17,0,0,1,9.22-10A25.81,25.81,0,0,1,190,.17a36.64,36.64,0,0,1,15.4,2.41l.17.07.11.1c-1.12,2.87-1.13,5.94-1.35,9h-2.09L202.14,10c0-.77-.07-1.53-.1-2.3A2.26,2.26,0,0,0,201.16,6a11.33,11.33,0,0,0-4.92-2.37c-4.23-.95-8.35-.78-12.2,1.46a12.9,12.9,0,0,0-5.9,7.6,21.43,21.43,0,0,0,1.06,16.37,14.88,14.88,0,0,0,12.61,8.68A20.43,20.43,0,0,0,204.7,35C205.2,34.71,205.29,35.26,205.58,35.35Z"/></g></g></svg>