<svg xmlns="http://www.w3.org/2000/svg" viewBox="0 0 250 42.74"><defs><style>.cls-1{fill:#000;}</style></defs><g id="Layer_2" data-name="Layer 2"><g id="Layer_1-2" data-name="Layer 1"><g id="g1603"><path id="path1082" class="cls-1" d="M120.8,27.29c0,5-3.11,8.35-7.41,8.35s-7.53-3.21-7.53-8.35,3.14-8.35,7.53-8.35S120.8,22.31,120.8,27.29ZM113.39,11.9c-9.21,0-15.66,6.58-15.65,15.39s6.34,15.45,15.65,15.45S128.9,36,128.9,27.29,122.61,11.92,113.39,11.9Z"/><path id="path1082-3-1-9" class="cls-1" d="M40,11.9A14.41,14.41,0,0,0,29.39,16c-2.86,2.76-4.48,6.53-4.47,11.73a14.43,14.43,0,0,0,5,11.44c2.85,2.3,6.25,3.55,11,3.55A20,20,0,0,0,51.4,39.82v-7a16.74,16.74,0,0,1-9.35,3.3c-4,0-8.18-1.35-9.2-6.33H53.22a26.51,26.51,0,0,0,.27-3.2,14.83,14.83,0,0,0-3-9.55A13.28,13.28,0,0,0,40,11.9ZM39.64,18a5.36,5.36,0,0,1,4.18,1.65A7,7,0,0,1,45.62,24H33a8,8,0,0,1,1.85-3.84A6.41,6.41,0,0,1,39.64,18Z"/><path id="path1312" class="cls-1" d="M57.57,0V37.15A5.23,5.23,0,0,0,63,42.74a10.22,10.22,0,0,0,4.39-.89s-1.64-1.33-1.65-7.21V5c0-2.54-1.61-4.95-4.6-4.95Z"/><path id="path1312-7" class="cls-1" d="M0,5.59v4.2H11.85V37.15a5.24,5.24,0,0,0,5.42,5.59,10.2,10.2,0,0,0,4.38-.89S20,40.52,20,34.64c0-5.7,0-23.7,0-26.23s-3-7.11-7.83-7.11H4.66A4.62,4.62,0,0,0,0,5.59ZM17.4,1.3a.28.28,0,0,0-.28.28c0,.16.16.27.28.36A9.49,9.49,0,0,1,20.3,5c.76,1.56.78,3,1.28,3.79a2.29,2.29,0,0,0,2.18,1H30a1.79,1.79,0,0,0,1.91-2V1.3Z"/><path id="path1312-2" class="cls-1" d="M71.07,0V42.25h8.16V28.89c1.76,2,6.58,7.71,7.2,8.42,2.18,2.54,3.75,4.94,7.32,4.94h6.53s-7.9-9.11-8.62-10c-2-2.27-3.45-4.44-6.32-4.87v-.29c2.47-.56,3.9-2.63,5.68-4.8.7-.84,8.08-10,8.08-10H89.86l-10.63,13V0Z"/><path id="path1312-5-6" class="cls-1" d="M148.47,11.9a8.42,8.42,0,0,0-6.36,2.56c-1,1.12-.81,1.43-1.1,1.64a4.5,4.5,0,0,0-4.58-3.72h-3.55V42.25H141V26.83c0-4.84,2.23-8,5.4-8s4.91,1.62,4.91,5.36v18h8.16V27c0-4.34,1.76-8.1,5.52-8.08S170,21.35,170,24.58V42.25h8.1V22.43a9.92,9.92,0,0,0-3-7.76c-2-1.88-4.28-2.77-7.95-2.77a10.72,10.72,0,0,0-8.26,3.69,14.56,14.56,0,0,0-1,1.32A9.27,9.27,0,0,0,155.67,14c-1.92-1.6-3.95-2.1-7.2-2.1Z"/><path id="path1082-3-7" class="cls-1" d="M194.23,11.9c-4.93,0-7.59,1.54-9.09,2.86a7.84,7.84,0,0,0-2.88,6.6c0,3.62,2.64,6.61,7.86,8.21s7.39,2.16,7.37,3.92-1.32,2.89-5,2.89a15.46,15.46,0,0,1-10.06-4.05v7.41a18.42,18.42,0,0,0,10.47,3c4.62,0,7.4-1.13,9-2.4A8.55,8.55,0,0,0,205.35,33c0-4-2.72-6.69-6.84-8.13s-8-1.93-8.29-3.62.63-2.82,3.67-3.1,8,1.29,9.64,2.95V14.27A17.42,17.42,0,0,0,194.23,11.9Z"/><path id="path1082-3-1" class="cls-1" d="M222.66,11.9A14.39,14.39,0,0,0,212,16c-2.86,2.76-4.48,6.53-4.48,11.73a14.47,14.47,0,0,0,5,11.44c2.85,2.3,6.25,3.55,11.05,3.55A20,20,0,0,0,234,39.82v-7a16.78,16.78,0,0,1-9.36,3.3c-4,0-8.17-1.35-9.19-6.33h20.36a23,23,0,0,0,.27-3.2A14.88,14.88,0,0,0,233.18,17a13.28,13.28,0,0,0-10.52-5.09ZM222.27,18a5.36,5.36,0,0,1,4.18,1.65,6.94,6.94,0,0,1,1.8,4.31H215.63a8.1,8.1,0,0,1,1.86-3.84A6.4,6.4,0,0,1,222.27,18Z"/><path id="path1312-8" class="cls-1" d="M240.2,0V37.15a5.24,5.24,0,0,0,5.42,5.59,10.2,10.2,0,0,0,4.38-.89s-1.64-1.33-1.64-7.21c0-5.7,0-27.16,0-29.69S246.74,0,243.75,0Z"/></g></g></g></svg>